# xmcd
#
# Track frame offsets:
#	151
#	15237
#	35337
#	53537
#	75159
#	93439
#	109506
#	117502
#	140962
#	154243
#	176537
#	195932
#	206685
#	226418
#	239440
#
# Disc length: 3482 seconds
#
# Revision: 1
# Processed by: cddbd v1.5.2PL0 Copyright (c) Steve Scherf et al.
# Submitted via: audiograbber 1.83.01
#
DISCID=b60d980f
DTITLE=Three Day Band - Light In The Dark Town
DYEAR=1999
DGENRE=Contemporary Christian
TTITLE0=Live Love
TTITLE1=Jessie of the Morning Star
TTITLE2=Alone Before the Face of God
TTITLE3=Gather to the Table
TTITLE4=Don't You Tear My Jesus Down
TTITLE5=Change
TTITLE6=He is Your Praise
TTITLE7=Run Can't Hide
TTITLE8=Be Granted You
TTITLE9=Go Tell It On The Mountain
TTITLE10=These Broken Wings
TTITLE11=Kicking At Stones
TTITLE12=23rd Psalm
TTITLE13=O Come, O Come Emmanuel
TTITLE14=Everybody's Train
EXTD=
EXTT0=
EXTT1=
EXTT2=
EXTT3=
EXTT4=
EXTT5=
EXTT6=
EXTT7=
EXTT8=
EXTT9=
EXTT10=
EXTT11=
EXTT12=
EXTT13=
EXTT14=
PLAYORDER=
